<svg viewBox="0 0 708.7 195.9" xmlns="http://www.w3.org/2000/svg"><path d="m37.9 59.4h1.5c1.7 0 2.7.2 3 .5 4.2 8.2 6.8 13.6 7.9 16 .8 1.1 1.2 1.8 1.2 2.1.8 1.3 2.2 4 4.4 8.1s3.9 7.1 5.1 9l2.7 5.1 1.7 3.4c1.1 2.5 1.8 3.8 1.9 4v.3s.2.2.2.2c1.6 3 2.9 5.5 4 7.6s1.8 3.5 2.1 4.2.7 1.4 1.1 2.2 1 1.8 1.8 3.1c.2.3.4.9.8 1.9.6 1.3.9 2.5.9 3.9s-1.4 1.2-4.1 1.3c-.6.1-1.6.1-2.9.1h-5.6c0-.1-.2-.1-.2-.1-.2-.1-.5-.2-1-.2s-.8 0-1.5.1c-.8.1-1.4.1-2 .1h-8.5c-2.9 0-4.6-.3-5.2-.8 0-.1 0 0 0 0 0-.2-.3-.7-.5-1.4s-.3-1.1-.5-1.4l-.9-2.8c-1.2-2.7-2.3-5.5-3.4-8.3l-1.4-3.4s-.2-.3-.4-.8-.4-.9-.6-1.4-.4-.9-.4-1.2l-.4-.8c-.7 2.3-1.1 3.5-1.1 3.6s-.2.5-.2.5-.2.4-.3.8-.2.8-.3.9c-.9 2.4-1.7 4.4-2.3 6.1-.3 1.1-.6 1.9-.8 2.4l-.4 1.3-.8 2.4c-.2.8-.5 1.5-.8 2.3-.2.4-.7 1.4-1.5 2.8h-3.3c-.5.1-1 .2-1.5.2s-.5-.1-.8-.2c-.4.1-.9.2-1.6.2s-1.3-.1-1.8-.2c-.4-.1-1.6-.1-3.5-.1-2.8 0-4.4 0-5 .1h-6.4c-.8 0-1.2 0-1.4-.1h-.2c-1.8 0-2.9-.2-3.3-.7v-.3c0-2 .6-4.1 1.6-6.1l.5-.9 1.5-3.5v-.2c.3-.6.7-1.7 1.5-3.1.7-1.4 1.3-2.6 1.7-3.6 1.4-3.4 3.8-8.9 7.1-16.7 3.4-7.7 5.8-13.6 7.4-17.6.4-.9.6-1.4.8-1.6.7-2.1 1.4-4.1 2.2-6.1s1.4-3.7 2-5.1 1.1-2.7 1.6-3.7c.5-1.1.9-1.9 1.2-2.5l.4-.8c.6-.6 1.8-.9 3.8-.9h3.3z" fill="#d55293"/><path d="m75.4 60c.5 0 .8.2 1 .2l.7-.2c.5 0 2.5.2 6 .3s6.6.6 9.3 1.4c2.1.6 5.6 2.3 10.7 5 .2 0 .6.4 1 .8s.7.6.8.7c.3 0 1.2.8 2.9 2.1 1.6 1.3 2.5 2 2.5 2.1.3.2 1 .9 2.3 2.2l2.1 2.1c1 .9 2 2.1 3 3.7 0 0 .2.3.4.6s.4.6.5.7c.4.4.8 1 1.2 1.8.2.8.6 1.5 1 2.2.4.8.7 1.8 1 3.2 0 .4.2 1 .4 1.7s.3 1.1.3 1.3c.3 1 .4 2.4.4 4.2 0 3.1-.5 6.3-1.4 9.5-.3.9-1 2.8-2.3 5.7s-2 4.4-2.2 4.5c-.3.3-.6.8-.9 1.4-2.4 4-4.7 6.6-7 8-.2 0-.6.4-1.3.8s-1.1.7-1.3.9c-.7.6-1.3.9-1.7 1.1-.5.3-.8.4-.8.6-.2.3-1 .6-2.3 1.1-1.4.5-2.5.8-3.4 1 0 0-.3 0-.6.1s-.6.2-.8.2c-.8.2-1.8.3-2.8.4-.4.1-.9.1-1.6.2s-1.2.2-1.4.2c-1.6.4-4.2.6-7.8.6s-4.7-.3-5.3-.8c-.7-.5-1-1.9-1.1-4.3-.2-1.3-.3-2.1-.3-2.6v-.8c0-.4 0-1.1 0-2v-2.5l-1.5-45.1c0-2.6 0-4.3 0-5.3v-.2s0-.3 0-.5v-.6l-.3-3.1c0-1.3-.2-2-.2-2.2 0-.8 0-1.4.3-1.7.4-.4.6-.6.8-.7z" fill="#d55293"/><path d="m152.9 57.4h.9 2.1 12.4 1.9c.1 0 .1.5.1 1.3s0 1.5-.1 2v2.8c.2 1.4.3 2.6.3 3.5s0 1.3-.1 2.4-.1 1.8-.1 2.3v2.2c.1.8.1 1.4 0 1.6s-.2.4-.2.6v.6c0 .2-.1.2-.3.2h-2.4c-.7 0-1.5 0-2.4 0h-6.2c-3.4 0-5.8-.2-7.4-.3h-6.6c-.3 0-.6 0-.8.3l-.4.3-.2 3.3c0 1.8.1 2.6.2 2.6h.2q.1 0 .2 0c.3.2.5.3.7.3.3 0 1.2-.2 2.7-.2s2.7 0 4.7.2h12.3c.5 0 .8.2.9.3.1.3.2.5.2.8 0 .5-.1 1.3-.2 2.5v3.6c0 .4.1 1.7.2 4.1s.2 4.1.2 5.2c0 2.3-.2 3.6-.5 3.9h-16.4c-.2 0-.6 0-1.3 0h-2.8c-.4 0-.7 1.6-.7 4.9s.2 6.1.6 6.3h5.9 6.4 8.2 5.7c.1.2.1.4.1.8v9.5c.1.2.1.5.1.9v5.4c0 .4 0 .6-.1.7-.4.2-1.7.3-4.1.3s-5.8-.1-9.3-.3c-3.4-.1-5.6-.2-6.7-.2-1.6 0-2.7.1-3.3.2-.5.1-1.3.2-2.3.2s-1.3 0-2.3-.1-1.6-.1-1.9-.1h-3.3c-.2.1-.6.1-1.2.1-.9 0-1.5 0-2-.1h-5.5c-.3.1-.8.1-1.3.1h-1.4c-.3.1-.5.2-.7.2-.3 0-.6-.1-.8-.2 0-.1-.3 0-.5.1-.2.2-.3.2-.4.2s0-.1 0-.4c0-.1 0-1.1 0-3 0-4.2 0-8 .3-11.5.3-4.5.4-9 .4-13.4v-7.2c0-2.2 0-5.2.2-9 0-.7 0-2 0-3.8v-1.4c0-1.1 0-2.5 0-4.1s.3-7.5.8-16.6c.2-3.2.4-4.9.6-5.1h.2.2 1.8.9 1.6 3.7c2.3.2 4.1.3 5.2.3s2.5 0 3.8-.3h1.8 3.7 4v-.3z" fill="#d55293"/><path d="m196.2 59.9h.6c1.4 0 2.2.2 2.5.7.1 0 .1 0 .1.4v6.9c.1 0 .1 1 .1 2.9v17.3c0 .5 0 .8.1 1s.1.7.1 1.4v5.5c.1.2.1.5.1.8s0 .4-.1.7v.5c-.1.2-.1 2.3-.1 6.2s0 3.9.1 4.2c.1.4.5.7 1.3.8.8 0 2.8.3 6.2.4.9 0 1.9 0 3 .2s2 .2 2.7.2h1.5c.6.2 1 .3 1.3.3s.5 0 .7 0c.6-.2 1.3-.3 2.2-.3h.8c.6 0 .9 0 1 .3.1.2.2.7.3 1.6v2.6c.1.3.1.7.1 1.3v7.4c-.1.7-.1 1.7-.1 2.9v3.8c0 .6-.1 1.2-.2 1.7-.1.4-.4.7-1.1.7s-.8 0-1.7-.1-1.7-.1-2.5-.2c-1.5-.1-2.5-.2-2.8-.2-.7 0-1.4.1-2.2.2h-6.4c-.2.1-.7.1-1.5.1h-4.4c-.8 0-2 .1-3.6.2-1.7.2-2.7.2-3.2.2h-3c-2.1-.1-4.5-.2-7.3-.2h-4.4c-.9 0-1.4-.1-1.6-.4-.2-.2-.3-1.6-.3-4.2s.1-7.2.3-12.1c.1-2.4.1-5.5.1-9.3s0-5.6-.1-6.8c-.1-.2-.1-.7-.1-1.2v-1.8c.1 0 .1-.2.1-.3v-.4c0-.2 0-.6.1-1s.1-.8.1-.9v-.5c-.2 0-.2-.2-.2-.4v-1.9c-.1 0-.1-.4-.1-.8v-1.9c-.1 0-.1-.3-.1-.6v-2.8q-.1 0-.1-.2v-1.1c-.3-1.8-.4-4.5-.4-8s.1-8.3.4-11v-.7c0-.5 0-1.1-.1-1.7s-.1-1-.1-1c0-.2.1-.3.3-.3-.1 0-.2-.2-.2-.3s.1-.2.2-.3c.5-.4 1.9-.7 4.2-.7h2.2 2.2s1 0 1 0h5.8c3.7.3 5.9.2 6.2.2z" fill="#d55293"/><path d="m268.1 59.3c4.3.2 6.9.3 7.6.5.8 0 1.2.4 1.2.8s.2.6.5 1.2l.6 1.7.5 1.9c.3.7.5 1.3.7 1.9.6 2.8 1.3 5.4 2.1 7.6.9 2.6 1.4 4.5 1.7 5.6l1.1 4.6c.6 3 1 4.9 1.1 5.8l.4 2.5c.1.3.2.8.3 1.5s.3 1.2.3 1.3c.1.2.2.6.4 1.3s.3 1.1.4 1.3.2.9.6 2.1c.3 1.2.6 2.4.9 3.5l.8 3c.1.3.3.9.5 1.7s.3 1.3.4 1.7l1.1 4.2c.4 1.9.8 3.1 1 3.6.1.4.3 1.3.7 2.5.3 1.6.8 3.3 1.5 5.3s1.1 3 1.3 3.1c.1 0 .1.3.1.8s-.1 1.1-.2 1.2c-.3.4-.8.6-1.7.6h-4.4c-.3.1-.6.1-1.1.1h-2.5c-.1.1-.4.1-.8.1h-5.5c-1.7.2-3 .3-3.8.3s-1.9-.1-2.5-.3h-1.4c-.1-.3-.4-1.2-.8-2.6s-.8-2.5-1.1-3.4c-.6-2-.9-3.3-1-3.8-5.5.7-9.7 1-12.5 1h-1.5c-.6 0-1.3-.2-2.2-.2s-1.4 0-3.2.2h-2.2c-.1.4-.3.7-.4.8-.1 0-.2.4-.3.7s-.2.6-.3.8c-.1 0-.1.3-.2.4-.1.2-.1.3-.1.4s-.1.2-.1.3h-.1c-.1.2-.4.9-.8 2-.7 1.9-1.3 3-1.9 3.2-.1.1-.9.2-2.6.2-.8-.1-2.5-.2-5-.2h-1.3c-1.4 0-2.9-.1-4.6-.2s-3.3-.3-4.8-.5l-2.3-.3c-1.3-.2-2.1-.6-2.3-1.1-.1-.4-.2-.7-.2-.8 0-.5.4-1.6 1.3-3.4 2.4-5 4.1-9.1 5.3-12.2 4.7-8.3 7.7-14.3 9.2-18 .1-.2.2-.4.4-.8l.3-.4 3.3-5.1c1.2-2.2 2.1-3.9 2.6-5.2l1.7-3.4.8-1.9c.5-1 .8-1.6.9-1.7 0 0 .1-.2.3-.5s.4-.6.6-1 .4-.8.6-1.2c1.3-2.9 3-6.1 5.2-9.5l2.5-4.2c.1 0 .2-.3.3-.5s.2-.3.3-.5c.1 0 .1-.2.1-.3l.5-.4h4.7c4.6 0 6.8.2 7 .3z" fill="#d55293"/><path d="m325.3 60.3c1.4 0 2.1.8 2.1 2.2v.3c0 .3 0 1-.1 2.1-.1 1.2-.1 2.8-.2 4.8s-.1 4-.2 5.9c-.1 1.8-.1 4.3-.1 7.5s0 6 .1 7v19.1c-.1.8-.1 1.9-.1 3.3v8.2c0 .4 0 1 .1 1.6s.1 1.1.1 1.5v4.9c0 2-1.2 3.3-3.5 4-.4.2-1.6.3-3.6.3s-5.1-.1-8.1-.3c-1.8-.1-3.5-.2-5.1-.2s-3.4.1-4.3.2c-1 .1-1.6.2-1.7.2-.3 0-.6-.1-.8-.2-.9-.3-1.3-.8-1.3-1.4s-.1-.9-.3-.9c-.1-.4-.2-.8-.2-1.1s.1-.7.2-1.7v-10.3c0-2.6 0-4.6.1-5.9v-4.1c.1-.3.1-.7.1-1.2s0-.6-.1-.7v-1.1c.1-.3.1-1.3.1-3v-19.2c.1-.6.2-2.4.2-5.2s-.1-3.5-.2-4.5c0-.3.1-2.9.3-7.8v-.9c0-1.3.4-2 1.2-2h.6c.2 0 1.6-.2 4-.2s4.1 0 4.8-.2c1.4-.2 4.1-.4 8-.5h5c1.3-.2 2.4-.3 2.9-.5z" fill="#d55293"/><path d="m331.7 60c.5 0 .8.2 1 .2l.7-.2c.5 0 2.5.2 6 .3s6.6.6 9.3 1.4c2.1.6 5.6 2.3 10.7 5 .2 0 .6.4 1 .8s.7.6.8.7c.3 0 1.2.8 2.9 2.1 1.6 1.3 2.5 2 2.5 2.1.3.2 1 .9 2.3 2.2l2.1 2.1c1 .9 2 2.1 3 3.7.1 0 .2.3.4.6s.4.6.5.7c.4.4.8 1 1.2 1.8.2.8.6 1.5 1 2.2.4.8.7 1.8 1 3.2.1.4.2 1 .4 1.7s.3 1.1.3 1.3c.3 1 .4 2.4.4 4.2 0 3.1-.5 6.3-1.4 9.5-.3.9-1 2.8-2.3 5.7s-2 4.4-2.2 4.5c-.3.3-.6.8-.9 1.4-2.4 4-4.7 6.6-7 8-.2 0-.6.4-1.3.8s-1.1.7-1.3.9c-.7.6-1.3.9-1.7 1.1-.5.3-.8.4-.8.6-.2.3-1 .6-2.3 1.1-1.4.5-2.5.8-3.4 1-.1 0-.3 0-.6.1s-.6.2-.8.2c-.8.2-1.8.3-2.8.4-.4.1-.9.1-1.6.2s-1.2.2-1.4.2c-1.6.4-4.2.6-7.8.6s-4.7-.3-5.3-.8c-.7-.5-1-1.9-1.1-4.3-.2-1.3-.3-2.1-.3-2.6v-.8c-.1-.4-.1-1.1-.1-2v-2.5l-1.6-45.2c-.1-2.6-.1-4.3-.1-5.3v-.2c-.1 0-.1-.3-.1-.5v-.6l-.3-3.1c-.1-1.3-.2-2-.2-2.2 0-.8.1-1.4.3-1.7.4-.3.7-.5.9-.6z" fill="#d55293"/><path d="m379.2 58.8h1.8c4.6 0 7.2 0 7.8.2 1.7.3 3 .5 3.8.5h.4c.6 0 1.8-.2 3.4-.2s3.7 0 5.8.2c2.5.2 3.7.3 3.8.3l4.7-.2h3.4c.3 0 .6.3.9.7v2.1c0 .2 0 .3-.1.3s-.1 0-.1 0c.1.2.1.3.1.4v.2c-.2.6-.3 1.3-.3 2.3s.1 1.7.3 2.4v1.9c0 .4 0 .6.1.8v2.1c0 .3 0 .5.1.7.2 1.3.3 2.1.3 2.5s-.1.9-.3 1.1c-.4.6-.9.8-1.3.8h-2.3c-1.5.5-3 .8-4.3.8s-.3 0-.5 0h-.2c-.4 0-1.7 0-3.9-.2h-3.1l-.3.4c-.1 0-.1.4-.1.8 0 .9.1 2.3.4 4.1 0 0 0 .4.1.8s.1.8.2.9c0 0 0 .3.1.6v.5c.2 0 1.8.2 5 .2s5.2 0 6.3-.2h1.9c2.3 0 3.6.2 4 .6.4.3.6.7.6 1.2s0 .8-.1 1c-.1.5-.1 1.3-.1 2.4l.4 6.4c0 1.7 0 2.6.1 2.8v.5c0 .3.1.6.1.9v.9c0 1.1-.1 1.7-.2 2s-.5.6-1 .9c-.6.3-1.9.5-3.7.5-3.5 0-6.4-.2-8.7-.6h-.6c-.4 0-.7.5-.7 1.5v1c.2 2.8.5 4.4.9 4.6.1 0 .5.2 1.3.3.8 0 1.6 0 2.4.3h2 .8.6 4.5c.6 0 1 0 1.4-.3h.8c.8 0 1.3.2 1.5.6.1.3.2 2.6.2 7.2s0 4.3-.1 4.9v3.5c-.2 1.1-.4 1.8-.6 2.3-.3.6-.8.8-1.6.8h-3.5c-.5.1-2.5.1-5.8.1-5.4 0-8.7 0-9.8-.1-.6-.1-1.4-.1-2.4-.1s-1.3 0-1.7.1h-6c-.4.1-.8.2-1.2.2-.6 0-1-.1-1.4-.2-.2-.1-.4-.1-.5-.2-.2-.1-.3-.1-.3-.1q-.1 0-.2-.1h-.1v-.3c-.1-.1-.1-.3-.1-.4s-.1-.3-.2-.6c-.1-.2-.2-.5-.3-.8-.3-.5-.5-2-.5-4.5-.1-5-.3-7.9-.4-8.5v-.7c-.1-.4-.1-1-.1-1.7v-2c0-4.3-.2-7.3-.5-8.9-.1-1-.2-2.3-.2-3.9-.2-2.3-.3-3.7-.4-4.1-1.4-14.8-2.5-24.6-3.2-29.2-.2-1-.3-2.6-.3-4.8s0-1.6.1-1.7c-.2-.8.3-1.1.9-1.2z" fill="#d55293"/><path d="m468.4 132.3c-.4.1-1.3.2-2.6.2s-3.4-.1-5.2-.2c-.9-.1-2-.2-3.2-.2s-1.6.1-1.9.2c-.7.2-1.5.3-2.4.3s-2.1-.1-4-.3c-1.6 0-2.6-.2-3.2-.5s-.9-.9-1.1-1.9c-.1-.4-.1-1.3-.1-2.8s0-3.3.1-4.3c.1-1.4.2-4.7.2-10.1 0-8.4-.2-14-.5-16.8-.2-1.4-.3-3.2-.4-5.4-.1-3.5-.3-6.5-.5-9-.3-3.2-.5-8-.7-14.3 0-.8-.1-2.2-.2-4.3s-.2-3.5-.2-4.2 0-.9.1-.9c.2-.6 1-.8 2.5-.8h8.7.8 31.8c.3.3.4 1.2.4 2.7v11.3c0 4.3-.1 6.8-.3 7.4-.1.8-.2 1.4-.2 2h-.2c-.2 0-.3 0-.4 0-.2 0-.3 0-.4 0h-8.3c-.8 0-1.3 0-1.7 0-.3 0-.7 0-1.2 0s-.8 0-1.1 0c-.1 0-.4 0-.8 0h-4.7c-.2 0-.4 0-.7 0-.6 0-.9.8-.9 2.4s.1 2 .3 2.5c.4 2.5.6 3.8.8 4 .4.6 2.6.8 6.6.8s3.6 0 4.6 0h1.7s1.3 0 1.8 0h1.1c.9.2 1.5.4 1.6.6l.5.5v4.3c-.1 3.7-.1 6.9 0 9.4 0 3.1-.2 4.8-.5 5.1s-.9.5-1.8.5h-.2c-.4 0-.8 0-1.1.2-.8.3-3.5.4-8.1.4s-4.6.2-5 .5c-.2.2-.3.6-.3 1.2s0 1.9.1 5.2c.1 3.4.1 6.7.2 10 .1 3.1.1 4.8.2 4.8z" fill="#d55293"/><path d="m494.8 58.9h5.5c2.4 0 4.7.5 7 1.1.1 0 .4 0 .9.2.5 0 .8.2 1 .2 2.5.4 4.9 1 7.1 2 3.8 1.8 6.7 3.5 8.6 5.1 2.1 1.8 3.5 3.2 4.3 4.1s1.6 2 2.3 3.4c.5 1 .9 2.3 1.1 3.9v1.1s0 .8 0 1.1c0 .8-.3 1.4-.5 1.9 0 .3-.2.4-.2.6 0 1.6-1 4-3.1 7-2 3-3.9 5.3-5.5 6.9-.3.3-.4.8-.4 1.5 0 1.1.2 2 .7 2.5 0 .2.6 1.1 1.5 2.7.8 1.6 1.7 3.1 2.7 4.4l4 5.8c3.6 5.4 6.7 10.4 9.2 14.9 1 1.7 1.5 2.6 1.5 2.6 0 .3-.5.5-1.6.5h-.8c-1.4-.2-3-.3-4.8-.3s-2 .1-2.7.2h-1.9c-.2 0-.3 0-.5.1s-.7.1-1.6.1-1.6 0-2.1-.1c-.3-.1-.7-.1-1.3-.1h-3.8c-.6 0-1.1-.1-1.5-.2-.3-.1-.6-.2-.7-.4 0-.1-.2-.4-.3-.9s-.3-.9-.5-1.2c-.5-1-1.4-3-2.8-5.9s-2.6-5.5-3.8-7.6c-1.1-2.2-2.1-3.9-2.8-5.1v13.9c0 .4 0 1 .1 1.6.1.7.1 1.1.1 1.4s-.1.6-.2 1.1c-.1.3-.1.6-.1.9s0 .7.1 1.1.1.7.1.8-.1.3-.2.4h-5.5c-.5 0-.9 0-1.1.1h-2.3c-.3 0-.4 0-.6.1s-.5.1-1 .1-1 0-1.2-.1-.7-.1-1.6-.1-1.8 0-2.3.1c-.6.1-1.4.2-2.2.3s-1.4.2-1.6.2c-.5 0-.8-.2-.8-.5-.1-.4-.2-.8-.2-1.4s0-1.2.1-2.5.1-2.3.1-3.2v-8.3c0-1.1 0-1.9.1-2.4v-6.6c-.1-.8-.1-2-.1-3.7v-6.3c-.1-.2-.1-.5-.1-1v-5.8c0-.5 0-.9-.1-1.2-.1 0-.1-.3-.1-.7v-5c-.1-1.8-.2-3.1-.2-4.2s.1-2.8.2-4.8v-4c-.1-.2-.1-.5-.1-.8v-5.3c0-.4 0-.7-.1-.8v-.3c0-.2 0-.7-.1-1.4-.1-.8-.1-1.4-.1-1.8 0-.7.1-1.3.3-1.7 1-.3 2.9-.3 6.5-.3z" fill="#d55293"/><path d="m539 117.3v-.2c0-1.6-.3-9.2-1-22.9s-1.1-20.6-1.1-20.7c-.3-.6-.5-2.7-.5-6.2v-1.5c0-.7.3-1.2.6-1.4l.7-.5 8.6-.4c1.3 0 2.8 0 4.4-.2s2.9 0 3.9-.2h1.8 1c.4 0 .7 0 .8.3.3.2.4.4.4.7s0 1.1-.3 2.5v.5c0 2.1 0 5.8.3 10.9s.4 8.1.6 8.9v5.3 5.6c.3 2.3.4 7.3.5 14.9s.2 12.4.4 14.4c0 .6.2 1.4.2 2.2 0 1.5-.4 2.4-1.1 2.6-.6.3-2.9.5-7.1.8h-.7c-.6 0-1.4-.1-2.4-.2-1-.2-1.6-.2-1.9-.2h-.5c-1.3.2-3.2.3-5.6.3h-1.3c-.4-.1-.6-1.2-.7-3.1.3-.8.2-4.8-.1-12.1z" fill="#d55293"/><path d="m563.2 58.7 4 .2c.4.3.9.6 1.3 1s.8.8 1.2 1.3l.6.8c.5.5.9.9 1.2 1.1 4.8 3.6 8.6 7.1 11.4 10.5l3.7 4.1c1.4 1.4 2.5 2.7 3.3 3.9.4.6.9 1.3 1.7 2.1.7.8 1.1 1.2 1.3 1.2s.2 0 .4-.4v-.9c0-.5 0-1.5 0-3.1s0-3.6 0-4.1v-8.8c0-1 0-2 0-2.8 0-1.4 0-2.7 0-3.7v-1c0-.5 0-.8.2-.9 0 0 .5-.2 1.1-.2h.8c1.3 0 3.1 0 5.5.3h2.2 5.1s3.3 0 3.9 0c1.3 0 2.1.2 2.5.5 0 .4.2 3.6.2 9.6v20 2.1c0 1.5-.2 3.8-.2 6.8v3.7 4s0 3 0 3.7v2.4 8.1 9.4c0 2.1-.5 3.2-1.4 3.2s-1.5-.3-3.1-.9c-.6-.1-1.1-.5-1.7-1l-2.6-2.5c-.2-.2-.6-.6-1.4-1.3-.7-.7-1.2-1.1-1.4-1.2l-2.6-2.5c-1.1-.8-1.8-1.4-2.1-1.9-.9-.9-1.5-1.4-1.9-1.6-1.3-.9-3.2-2.8-5.8-5.5-.6-.6-1.4-1.3-2.3-2.2-.6-.4-.9-.6-1-.8-.5-.6-1.1-.9-1.7-.9h-.4v1 1 1.6 3.7s0 2.2 0 3.4v2.3 1.5 1.2 3.5 1.4 1.2c0 .3 0 .4-.2.6h-20.2c-.9 0-1.5-.1-1.8-.3 0-.1-.2-.9-.2-2.3s0-4.2.2-7.1v-13.1c0-4-.2-6.3-.2-6.9 0-1.4 0-3.7.2-6.9v-6.1c.2-2.1.3-4.8.3-8s0-7.3-.3-11.4v-8.3c0-.6 0-.9 0-1v-.9c0-.4 0-.7 0-.9-.1-.5 0-.7 0-.8z" fill="#d55293"/><path d="m652.7 61.2c1.1 0 1.8 0 2.2.2h1s.6 0 .8.3h.4s.4.2.7.3h.6c.7 0 1.7.5 2.9 1 1.2.6 2 1 2.4 1.3 0 .2.3.5.7.8.6.6.8 1.5.8 2.7s0 2.4-.3 4v1.7s0 1.6 0 2c0 1.5.2 3.6.2 6.2s0 2.4-.2 2.5v2 .6 1.8c0 .3-.2.5-.3.6 0 .2-.2.3-.3.3 0 0-.2 0-.4.2s-.3 0-.4.2-.2 0-.3 0c-.4 0-1.9-.8-4.5-2.4-2.5-1.6-4.6-2.5-6.3-2.6h-.7c-2.6 0-4.9 1.1-6.7 3.3-.7.6-1.3 1.6-1.9 2.9-1 2.1-1.5 3.7-1.5 4.6s.3 2.2.8 4.1c.6 1.8 1.2 3 1.8 3.6 1.2 1.1 2 1.8 2.3 2.1s1 .5 1.8.8c1.4.4 2.4.7 2.7.7h.3v-7.4c0-1 0-1.6 0-1.8v-3.5q0 0 0 0c.2 0 .3.2.5.2s.3 0 .4 0q0 0 .2 0h.2l.6.3h2.6.8 2.1-.2c0 .2.3.2.4.2s.2 0 .5 0 .6 0 .9 0h.3c1.1 0 1.8 0 2.2.2s.7.3 1 .7.5 1 .5 1.8v19.6 4.1 3.7c0 2.3-.3 3.8-.8 4.3q0 .1-.2.2c-.4.6-1.1.9-2 .9s-.7 0-1.4.1c-1.2.1-2.2.1-3.1.2-1.1.2-2.1.3-2.9.3s-3.5-.3-7.6-.8c-5.7-.8-9.6-2-11.7-3.4-.3-.2-.8-.5-1.4-.9-.5-.3-1.4-1.1-2.7-2.2-1.3-1.2-2.3-2.2-3.1-3.1l-1.7-1.8c-.4-.4-1.7-2-3.8-4.8-1.8-3.3-3.2-6-4.2-8.3-.9-2.3-1.5-4.1-1.8-5.5-.3-1.6-.5-3-.5-4.2s0-2.2.3-3.2c.3-.8.4-1.6.4-2.3 0-1.2.4-3.1 1.1-5.8.8-2.7 1.5-4.7 2.2-6.2.4-.9 1.4-2.6 3-5.1.4-.6.7-1 .8-1.3.3-.5.9-1.3 1.7-2.4s1.4-1.8 1.7-2.1c1.4-1.3 2.5-2 3-2.3.9-.7 1.7-1.2 2.6-1.6.8-.3 2-.7 3.3-1.1s2.4-.7 3.3-1c1.4-.4 3-.6 4.9-.6s2.4 0 4.2.2c2.2.1 3.6.2 4.6.2z" fill="#d55293"/><path d="m667.2 58.8h1.8c4.6 0 7.2 0 7.8.2 1.7.3 3 .5 3.8.5h.4c.6 0 1.8-.2 3.4-.2s3.7 0 5.8.2c2.5.2 3.7.3 3.8.3l4.7-.2h3.4c.3 0 .6.3.9.7v2.1.3s0 0 0 0v.4.2c-.2.6-.3 1.3-.3 2.3s0 1.7.3 2.4v1.9.8 2.1.7c.2 1.3.3 2.1.3 2.5s0 .9-.3 1.1c-.4.6-.9.8-1.3.8h-2.3c-1.5.5-3 .8-4.3.8s-.3 0-.5 0h-.2c-.4 0-1.7 0-3.9-.2h-3.1l-.3.4v.8c0 .9 0 2.3.4 4.1v.8s0 .8.2.9v.6.5c.2 0 1.8.2 5 .2s5.2 0 6.3-.2h1.9c2.3 0 3.6.2 4 .6.4.3.6.7.6 1.2s0 .8 0 1v2.4l.4 6.4v2.8.5.9.9c0 1.1 0 1.7-.2 2 0 .3-.5.6-1 .9-.6.3-1.9.5-3.7.5-3.5 0-6.4-.2-8.7-.6h-.6c-.4 0-.7.5-.7 1.5v1c.2 2.8.5 4.4.9 4.6 0 0 .5.2 1.3.3.8 0 1.6 0 2.4.3h2 .8.6 4.5c.6 0 1 0 1.4-.3h.8c.8 0 1.3.2 1.5.6 0 .3.2 2.6.2 7.2s0 4.3 0 4.9v3.5c-.2 1.1-.4 1.8-.6 2.3-.3.6-.8.8-1.6.8h-3.7c-.5.1-2.5.1-5.8.1-5.4 0-8.7 0-9.8-.1-.6-.1-1.4-.1-2.4-.1s-1.3 0-1.7.1h-6c-.4.1-.8.2-1.2.2-.6 0-1-.1-1.4-.2-.2-.1-.4-.1-.5-.2-.2-.1-.3-.1-.3-.1q0 0-.2-.1v-.3c0-.1 0-.3 0-.4s0-.3-.2-.6c0-.2-.2-.5-.3-.8-.3-.5-.5-2-.5-4.5 0-5-.3-7.9-.4-8.5v-.7c0-.4 0-1 0-1.7v-2c0-4.3-.2-7.3-.5-8.9 0-1-.2-2.3-.2-3.9-.2-2.3-.3-3.7-.4-4.1-1.4-14.8-2.5-24.6-3.2-29.2-.2-1-.3-2.6-.3-4.8s0-1.6 0-1.7c.1-.8.5-1.1 1.1-1.2z" fill="#d55293"/><path d="m295.8 23.2-4.8-19.6 8.9-3.6 7.6 19.3 15.9-8.6 4.7 8.4-14.3 9.6 16.6 10.9-6 9.1-16.3-7.1-12 15.7-7.6-4.6 8.1-17.6-17.8-.5.2-10.1z" fill="#71285d"/><path d="m545.9 34 4.2-11.3 5.7 1.3-2.9 12.1 10.8 1.2-.5 5.7-10.4-.1 4.5 11.1-6.1 2.4-5.6-9.1-11.3 3.7-2.2-4.9 10.1-5.9-8.7-6.3 3.6-4.9z" fill="#71285d"/><g fill="#64235e"><path d="m1.7 183.4c-.2 0-.3-.2-.3-.5s0-.4.1-.8c0-.4.1-.7.1-.9s0-.4 0-.5c-.1-.4-.2-.8-.2-1.4 0-.8.2-1.5.6-2.1.9-1.4 1.5-2.1 1.7-2.2 0 0 0 0 .2-.1l.4-.4c.2-.2.3-.3.4-.4.7-.7 1.2-1.3 1.5-1.5 1.7-1.6 3.1-3 4.1-4.3.9-1.3 1.5-2.2 1.7-2.8.1-.2.2-.4.2-.6s0-.1 0-.3 0-.3 0-.3c-.2-1.4-.4-2.2-.5-2.4-.1-.1-.5-.8-1.2-2.2-.6-1.3-1.1-2.2-1.5-2.7l-.6-.9-1.3-1.9-.6-.9s0-.2-.2-.5c-.1-.3-.2-.5-.2-.6s0-.2.1-.2h.8 2.1 1.1.4.4.4.6s.6 0 .7 0h4.1 1c.8 0 1.3.2 1.4.6.4.7.7 1.3 1.1 1.8l.9 1.2c0 .1.2.3.3.5s.2.3.2.4c.6.5.9.9 1 1.3s.4.7.9 1.1c.5.5.8.9.9 1.2l.8.9c.2.2.4.8.8 1.8.3 1 .5 1.5.6 1.7.2.8.4 1.6.5 2.4v.8c0 1.6-.3 2.7-.9 3.4 0 0-.1.2-.2.4 0 .2-.2.4-.2.5-.5 1-1.3 1.9-2.2 2.7 0 0-.1.2-.2.4 0 .2-.4.4-.8.7-.2.1-.6.3-1.1.6l-2.7 1.7c-.4.3-.7.5-.7.6 0 0-.4.4-1.1 1s-1 1.1-1 1.3v.7.9h.2c.6.1 3.4.2 8.1.2s2.2 0 2.4.2.4.7.4 1.4v.5c0 .9 0 1.7.2 2.3v1.5.3 1.3.9c0 .9-.3 1.5-1 1.8l-.5.3h-2c-.3 0-.9 0-1.9-.1-.9 0-1.8 0-2.5-.1-.7 0-1.1 0-1.2 0-.7-.2-1.8-.3-3.1-.3s-.7 0-.9 0-.4.1-.7.1-.5 0-.7-.1c0 0-.1 0-.3 0s-.3 0-.3 0-.2 0-.4 0-.3 0-.4 0h-2.1c-1.8 0-3 0-3.6.2-.4 0-.7.1-.9.1-.7 0-1.3-.1-1.8-.4-.3-.2-.5-.4-.6-.6 0-.3-.1-.9-.2-1.8 0-1-.1-1.7-.2-2 0-.2 0-.8 0-2s0-.7 0-1.2 0-.8 0-.9z"/><path d="m37.3 152 .7-.2h.8.4.4s.1 0 .2.1h.9s.8 0 1.8 0h2.8s.9 0 1.5 0h1.1c.3 0 .5 0 .5.1h.3s.2 0 .3 0h.6c.5 0 .8.3 1 .8 0 .1 0 .2.1.3 0 .1 0 .2.1.3v.9c0 .2.1 1.3.1 3.3s0 3.4-.1 3.7v1.3s0 1.1 0 2.5v4.2 5.7 3.3 2.1s0 2 0 2.6v2.6 2.1 3.7s0 .3-.2.3-.2 0-.6 0c-.3 0-.7 0-1 0h-3.8c-.1 0-.3 0-.6 0s-.5 0-.6 0c-.2 0-.5 0-.8.1-.1 0-.3 0-.6 0s-.4 0-.7 0-.5 0-.6 0h-.2c-.5 0-.8.1-.9.1-.2 0-.4 0-.5-.2 0 0 0 0-.1 0 0 0 0 0 0-.1v-.3c0-.1 0-.3 0-.6s0-.6 0-1c0-.7 0-1.3 0-1.6v-.6c0-.3 0-.7 0-1.2s0-.8 0-1c0-.3 0-.5 0-.6 0-.2 0-.7 0-1.5s0-1.3 0-2.3 0-1.6 0-1.8v-11.4s0-.3 0-.7 0-.6 0-.8 0-.2 0-.2c-.2.2-.5.8-.9 1.9 0 0 0 .2-.3.5-.1.1-.2.4-.4.8-.1.4-.4.6-.9.6h-2.2c-.4 0-1.1 0-1.9 0s-1.4 0-1.8 0h-4c0-.4-.1-.6-.1-.9 0-.4 0-.6.2-.8.3-.6 1-1.6 2-2.9 0 0 0-.1.1-.2 0-.1.2-.3.3-.5s.3-.5.5-.8.4-.8.7-1.3l1-2c.1-.3.5-1 1.2-1.9s1.1-1.5 1.2-1.7c0-.1.9-1.6 2.6-4.4z"/><path d="m83.2 191.7c-.2 0-.7.1-1.4.1s-1.8 0-2.8-.1c-.5 0-1-.1-1.7-.1s-.9 0-1 .1c-.4.1-.8.2-1.3.2s-1.1 0-2.1-.2c-.8 0-1.4 0-1.7-.3-.3-.2-.5-.5-.6-1 0-.2 0-.7 0-1.5s0-1.8 0-2.3c0-.7.1-2.6.1-5.4 0-4.5 0-7.5-.3-9-.1-.7-.2-1.7-.2-2.9 0-1.9-.2-3.5-.3-4.8-.1-1.7-.3-4.3-.4-7.7 0-.4 0-1.2-.1-2.3 0-1.2-.1-1.9-.1-2.2s0-.5 0-.5c.1-.3.5-.5 1.3-.5h3.2.8.6.5 1.2s.1 0 .3 0h.3s.2 0 .3 0h.3 14.8c.1.2.2.7.2 1.5v6c0 2.3 0 3.7-.2 4 0 .4-.1.8-.1 1.1h-.1c-.1 0-.2 0-.2 0-.1 0-.2 0-.2 0h-2.2c-.3 0-.7 0-1.2 0s-.8 0-1 0c-.4 0-.7 0-.9 0s-.4 0-.7 0-.4 0-.6 0c0 0-.2 0-.5 0s-.3 0-.7 0-.7 0-1 0h-.8c-.1 0-.2 0-.4 0-.3 0-.5.4-.5 1.3s0 1.1.2 1.4c.2 1.4.3 2.1.4 2.1.2.3 1.4.5 3.6.5s1.9 0 2.5 0h.9 1 .6c.5.1.8.2.9.3l.3.3v2.3 5.1c0 1.7 0 2.6-.3 2.7s-.5.3-1 .3h-.1c-.2 0-.4 0-.6.1-.4.1-1.9.2-4.4.2s-2.5 0-2.7.3c-.1.1-.2.3-.2.7s0 1 0 2.8 0 3.6.1 5.4c0 1.8 0 2.7.1 2.7z"/><path d="m102.4 152.2h1.8s1.1 0 1.2 0h.4s.3 0 .5 0h.5 1.1.7.4.3s.3 0 .4 0h1.4 3.1 1.6s.1.1.1.2v.1.5s0 .4 0 1v1.5 1s0 0 0 .2 0 .1 0 .3v.3 1 .3s0 .2 0 .4v.7s0 .2 0 .3v.4c0 .4.1.7.1.8 0 .3-.3.5-1 .6-.5 0-1.5.1-2.8.1-2.2 0-3.6 0-4.1-.2-.1 0-.3 0-.6 0s-.5.2-.5.6 0 .9 0 1.2c0 .4.1.7.1 1 0 .5.2.9.4 1s.7.2 1.6.2 1.9 0 2.2 0c1.9-.2 3.1-.3 3.7-.3h.5c.5 0 .9.1 1.3.1.9 0 1.4.1 1.6.3 0 0 .1.2.1.3s0 .1 0 .2v.3.6.7s0 .3 0 .7v.9 6.5c0 .2.1.5.1 1s0 .4-.1.6c-.2.2-.5.4-.7.4s-1 0-2.4 0c-2.1 0-3.1.1-3.2.2-.3 0-.7.1-1 .1s-.7 0-1.2-.1c-.1 0-.3 0-.5 0s-.1 0-.3.2c0 .2-.1.5-.1.9 0 1.2.1 1.9.4 2 .1 0 .5.1 1 .1s.5 0 .8 0h1.5 1.8c.8 0 1.6-.1 2.3-.1s.7 0 .9.1h.8 1c.8 0 1.2.1 1.2.2.3.1.5 1.1.6 2.9v1.7 2.3c0 2.3 0 3.7-.2 4h-.1c0 .1 0 0-.1 0h-.1-.1s-.2 0-.3 0-.2 0-.4 0-.4 0-.6 0h-.8c-.1 0-.3 0-.6 0s-.5 0-.6 0c-.2 0-.3 0-.4 0h-1.6c-.1 0-.3 0-.7 0-.3 0-.6 0-.8 0-.3 0-.6 0-.8 0-.1 0-.3 0-.6 0s-.5 0-.6 0-.3 0-.6 0c-.2 0-.4 0-.5 0s-.3 0-.7 0-.5 0-1 0-.8 0-1.1 0h-2.3s-.2 0-.4 0-.3 0-.6 0-.5 0-.7 0c-.3 0-.7 0-1.3 0s-.8 0-1.4 0-.9 0-.9 0h-.2s-.1 0-.2 0-.3 0-.7 0-.8 0-1.1 0-.3 0-.5 0-.4 0-.5 0h-.8c-.3-.2-.5-.8-.5-1.7 0-3 0-5-.3-5.9 0-.2 0-.5 0-1.1s0-1.3-.1-2.2c0-.9 0-1.8-.1-2.6 0-.4 0-.9 0-1.4 0-.6 0-.9 0-.9v-.5c0-.3 0-.7 0-1.2s0-.9 0-1.3c0-1.7 0-2.6-.1-2.8s-.2-.4-.2-.8c0-.6 0-1 0-1.2-.2-1.4-.3-2.6-.3-3.6 0-.5 0-1-.2-1.7 0-.6-.1-1-.1-1.1-.2-1.8-.4-3.1-.4-3.9s0-1.6-.2-2.1v-.3s0-.2 0-.5c0-1.6 0-2.5.3-2.8h.1s0 0 .1 0h.1.2.4.5.5.3.6.6.4.2.6.8.7 2.1z"/><path d="m138.4 153.3c3.2.8 5.7 1.8 7.4 2.9 1.6.9 2.8 2.1 3.6 3.5.3.5.4 1.2.5 2v.3c0 1-.1 2-.4 2.8-.2.4-.3.8-.4 1.3-.2.6-.7 1.4-1.4 2.2 0 .1-.1.3-.2.4 0 .1-.1.2-.2.3v.2s.2.2.6.3c1.7.7 2.7 1.3 3 1.6s.4.5.5.5.3.2.8.7.8.9.9 1.1c.7.9 1.1 1.8 1.2 2.5v.4.4.6c0 1.5-.2 2.8-.5 3.9-.2.5-.5 1.2-.9 2s-.7 1.3-.9 1.4l-.3.3c-1.6 2.6-4 4.4-7.4 5.3-.2 0-.6.1-1.2.3-1.6.5-3.2.9-4.7 1.1-1.3.3-2.7.5-4.2.7s-3.1.4-4.9.6-3.1.4-4 .5c-.4 0-1.2 0-2.2.2h-.3c-.8 0-1.2-.2-1.2-.7s0-.2 0-.5 0-.5 0-.6v-1.4c0-.1 0-.4 0-.8s0-.7 0-1.3 0-1.1 0-1.4v-.7s0-.2 0-.5 0-.4 0-.6 0-.3 0-.6 0-.4 0-.5v-2c0-.1 0-.2 0-.4s0-.3 0-.4 0-.2 0-.4 0-.3 0-.4v-1.9c0-.7.1-1.3.1-1.8s0-.9-.1-1.1c0-.1-.1-.8-.1-1.9s0-2.6.1-3.5c0-.3 0-.9 0-1.6s0-1.3 0-1.4v-.2c0-.1 0-.3 0-.6s0-.6 0-.8 0-.5.1-.9c0-3.4-.1-5.5-.1-6.2s0-1.8.1-3.4v-.2c0-.6.3-1 .9-1.4.3-.2.9-.4 1.7-.5.4 0 .9-.1 1.5-.2 1.4-.2 2.9-.3 4.4-.3h.7c2.6 0 5.1.2 7.3.7zm2.8 24.7c-1.1-.6-2.1-1-3-1h-.1s0 0-.1 0c0 0 0 0-.1 0-.2 0-.5 0-.9-.2-1 0-1.5 0-1.7.1 0 0-.1.3-.1 1s0 1.9.1 2.9v.2.7.6c0 .2 0 .4.1.5 0 .1.2.2.4.2s.2 0 .3 0h.2c1.1 0 1.9-.2 2.5-.5.3-.1.7-.2 1.1-.4.5-.1.9-.3 1.1-.4s.4-.3.6-.6.3-.7.3-1.4c0-1-.2-1.6-.6-1.8zm-2.2-16.6c-.4-.2-.7-.4-1-.4h-2.5v1.9c-.1 0-.2.7-.2.7v3.1c.2.4.6.6 1.2.6s1.7-.3 2.6-.9 1.3-1.3 1.3-2.1c0-.3 0-.7-.3-1.3-.2-.6-.3-1-.4-1.1 0 0-.2-.1-.4-.3-.2-.1-.3-.2-.4-.3z"/><path d="m158.3 152.2h2.9c1.3 0 2.5.3 3.8.6 0 0 .2 0 .5.1.3 0 .5 0 .6.1 1.4.2 2.6.6 3.8 1.1 2.1.9 3.6 1.9 4.6 2.7 1.1 1 1.9 1.7 2.3 2.2s.8 1.1 1.2 1.8c.3.5.5 1.2.6 2.1v.6s0 .4 0 .6c0 .4-.2.8-.3 1 0 .1-.1.2-.1.3 0 .9-.6 2.1-1.7 3.8-1.1 1.6-2.1 2.9-3 3.7-.1.1-.2.4-.2.8 0 .6.1 1.1.4 1.4 0 .1.3.6.8 1.4s.9 1.7 1.4 2.4l2.1 3.1c2 2.9 3.6 5.6 4.9 8 .5.9.8 1.4.8 1.4 0 .2-.3.3-.9.3h-.4c-.7-.1-1.6-.2-2.6-.2s-1.1 0-1.5.1h-.2s-.2 0-.4 0-.3 0-.4 0-.2 0-.3 0-.4 0-.9 0-.9 0-1.1 0c-.1 0-.4 0-.7 0s-.4 0-.8 0-.6 0-.8 0h-.4c-.3 0-.6 0-.8-.1-.2 0-.3-.1-.4-.2 0 0-.1-.2-.2-.5 0-.3-.2-.5-.3-.6-.3-.5-.8-1.6-1.5-3.2s-1.4-2.9-2-4.1-1.1-2.1-1.5-2.8v7.5.9.7s0 .3-.1.6v.5s0 .4 0 .6v.4s0 .1-.1.2h-1.6c-.1 0-.3 0-.6 0s-.5 0-.7 0c-.3 0-.5 0-.6 0h-.3c-.1 0-.3 0-.6 0-.2 0-.4 0-.5 0s-.2 0-.3 0-.3 0-.6 0-.6 0-.7 0-.4 0-.9 0-1 0-1.2 0c-.3 0-.7 0-1.2.2-.5 0-.7.1-.8.1-.3 0-.4 0-.5-.3 0-.2-.1-.5-.1-.8s0-.7 0-1.3c0-.7 0-1.3 0-1.7v-2.5s0-.3 0-.8 0-.9 0-1.2c0-.6 0-1 0-1.3v-3.6c0-.4 0-1.1 0-2s0-1.1 0-1.8 0-1.1 0-1.2v-.4c0-.1 0-.3 0-.6s0-.4 0-.7 0-.6 0-.8c0-.4 0-.7 0-1.1 0-.3 0-.5 0-.6 0-.3 0-.5 0-.7 0 0 0-.2 0-.4s0-.3 0-.5 0-.4 0-.5v-1.8c0-.9-.1-1.7-.1-2.2s0-1.5.1-2.6v-2.2c0-.1 0-.3 0-.5s0-.3 0-.5 0-.4 0-.4c0-.3 0-.7 0-1.1s0-.7 0-.8c0-.2 0-.4 0-.5v-.2c0-.1 0-.4 0-.8s0-.7 0-1c0-.4 0-.7.2-.9h3zm7.3 10.2c-.5-.3-1.1-.4-1.8-.4s-.4 0-.5.1c-.1 0-.2.3-.2.8s0 .5.1 1.3c0 .5.1 1 .1 1.5 0 1.6.1 2.4.2 2.4h.1s0 0 .2 0c.1 0 .6-.1 1.3-.4 1.3-.4 2-1.3 2-2.6s0-.2 0-.4 0-.2 0-.3c-.1-1-.6-1.7-1.5-2.1z"/><path d="m179.2 152.6s.3-.1.8-.1.8 0 1 .1h1.1s.7 0 1.2 0h1 1.8 2 1.3.1c.2 0 .4 0 .6-.2s.3-.2.4-.2.2.1.3.3.2 1.1.2 2.5c-.1 1.6-.2 3.2-.2 4.9v1.7 1.5.7 3 4.5c.2 1.7.4 3.1.7 4.2.4 1.1.7 1.8 1.1 2.2.1.1.3.2.6.2.6 0 1.2-.3 1.7-.8.4-.5.7-1 .9-1.5.1-.6.2-1.8.2-3.8s0-3.1-.2-3.5c0 0 0-.1 0-.2s0-.2 0-.3c0-.2 0-.3 0-.4v-.2s0-.2 0-.4 0-.4 0-.7 0-.5 0-.7v-.3c0-.1 0-.3 0-.7s0-.4 0-.8 0-.7 0-.9v-.5c0-.1 0-.4 0-.7s0-.5 0-.8c0-.4 0-.6 0-.7v-.2c0-.4 0-1 0-1.8s0-1.3 0-2.2 0-1.5 0-1.9 0-.9 0-1.1v-.9s0-.1 0-.2c.2-.2.5-.3.7-.3s.6 0 1.1.2c.5.1 1.4.2 2.7.2s.9 0 1.4 0h.9c.4 0 1.1 0 1.9.2.9 0 1.5.1 1.5.3.1.1.2 1.5.3 4.1v4.7 3.3c-.1.9-.2 2-.2 3.2s0 1.6 0 2.2c0 1.2-.1 2.7-.1 4.6s0 2.9-.2 4.8c0 .3 0 .9-.1 1.8v1.8c0 1.2-.2 2-.5 2.6-.2.7-.3 1.1-.3 1.1 0 .2-.1.4-.4.7 0 .1-.1.3-.2.5s-.2.3-.2.4c-.2.2-.5.7-1.1 1.3-1.1 1.1-2.5 1.8-4.2 2.1-.5 0-.8.2-.9.3-.4.1-1.5.3-3.4.4-.5 0-1.1.1-1.8.1s-1.4 0-2-.2c-.2-.1-.5-.2-.9-.2-.1 0-.4-.2-.9-.4-.5-.3-1-.6-1.6-.9-.7-.4-1.2-.7-1.2-.8l-.8-.4c-.8-.5-1.4-1.1-1.9-1.8 0 0-.1-.2-.3-.4s-.3-.4-.3-.5c-.9-1.1-1.5-2.5-1.8-4.3 0-.3-.2-.8-.3-1.5-.3-1.5-.5-3.7-.7-6.5-.1-1.8-.2-3.2-.4-4.4-.2-1.5-.3-3.5-.4-5.9 0-2.8-.2-4.3-.3-4.7 0-.1-.1-.8-.1-2s0-.7 0-1.5 0-1.4 0-1.9c0-.9 0-1.4.2-1.4s.1 0 .2-.1z"/><path d="m223 153.1c.5-.1 1.3-.2 2.4-.2s1.5 0 1.7.2c.3.1.5.2.6.2s.2 0 .3.1c.2 0 .3.2.3.3s.1.3.2.5l.7 1.4c.4.8.7 1.3.8 1.5.1.4.3.8.6 1.2.2.3.3.5.4.7.1.4.6 1.3 1.5 2.9.1.2.3.4.4.8 0 0 .2.2.3.4s.2.3.3.4l.7 1.2c.2.4.5 1.1 1 1.9 1.5 2.5 3.5 6.2 5.8 11 2.4 4.8 3.7 7.6 4.1 8.3.2.3.3.8.5 1.4s.4 1.2.9 1.8c.6 1.5 1 2.3 1 2.5s0 .2-.2.2h-.2c-.1 0-.5 0-1.1-.1-.6 0-.9-.1-1.1-.1s-.4 0-.7 0-.6 0-.7 0c-.4 0-.8.1-1.1.1s-.9 0-1.6-.1h-1.8s-.2 0-.5 0-.4 0-.6 0-.3 0-.6 0-.6 0-.7 0-.4 0-.7 0-.6 0-.7 0-.3 0-.6 0-.4 0-.5 0c-.3 0-.6 0-1 .1-.4 0-.6 0-.7 0-.2 0-.3 0-.5-.2-.3-.2-.6-1-.9-2.4-.3-1.5-.6-2.5-1-3-.3-.5-.4-.8-.5-.8h-.9c-.5 0-.9.1-1.4.1s-.8 0-1.8-.1c-.4 0-.9 0-1.5 0s-1 0-1.4 0c-.3 0-.7 0-1.2 0-.6 0-.9 0-1.1 0-.3 0-.5 0-.6 0v.2c0 .1-.1.2-.2.4 0 .2 0 .3-.1.4-.7 1.9-1.4 3.4-2.1 4.7-.3.6-.6.9-1 .9s-.2 0-.4 0-.4 0-.6 0-.4-.1-.7-.1-.3 0-.6 0-.5 0-.8 0h-1.4c-.1-.1-.7-.2-1.7-.2s-2 0-2.5.2c-.5 0-.7.1-.8.1 0 0-.3 0-.6-.1 0 0-.2 0-.3 0s-.2 0-.3 0-.2 0-.2 0-.1 0-.3 0c-.1 0-.3 0-.4 0-.5 0-.8-.1-.8-.4s0 0 0-.2l.2-.5c.1-.3.3-.7.4-1.1s.2-.7.3-.8c.2-.6.4-1.2.6-1.5 0-.1 0-.3.2-.5 0-.2.2-.5.3-.8s.2-.5.3-.7l.8-2.1c0-.3.2-.6.5-1.1.2-.2.3-.4.3-.6s0 0 0-.1c0 0 0-.1.1-.2 0 0 0-.2.1-.2.5-1.2.8-1.8.8-1.9 0-.2.1-.6.4-1.2.3-.8.5-1.4.6-1.8.2-.6.3-1 .4-1.3.3-.5.4-.8.4-.9 0-.2 0-.4.2-.6 0 0 0-.2.2-.5s.2-.4.2-.6l.4-1.2.4-1.5c0-.2.2-.5.3-.9.2-.4.2-.6.3-.7.2-.6.5-1.6.9-3 0-.1 0-.3.2-.5 0-.2.1-.4.2-.5s0-.3.1-.4c.2-.6.4-1.2.7-1.9s.4-1.1.4-1.1c.1-.2.2-.6.3-1 0 0 0-.2.2-.5 0-.2.1-.4.2-.5l.5-1.5c.4-1.6.9-2.7 1.3-3.3.3-.5.6-.7 1.1-.7h1.3.4s.3 0 .6 0h.5 1.5zm1.7 16c-.2-.5-.4-.8-.5-.8h-.1s0 .1-.2.4c0 .3-.2.7-.3 1.2-.1.6-.3 1.1-.4 1.6-.5 1.8-.8 2.7-.9 2.8l-.2.7c0 .1 0 .3-.1.5s0 .3 0 .4v.2s0 .1.1.3c.1.1 1.5.2 4.2.4h1.1c.5 0 .8 0 .8-.2v-.2c0-.2-.3-.9-.7-1.9-.5-1-.7-1.6-.8-1.9 0-.1-.2-.3-.3-.5-.1-.3-.2-.5-.4-.8-.1-.3-.2-.4-.2-.5l-.6-.9s-.1-.2-.2-.4-.2-.3-.3-.4z"/><path d="m246.1 152.2h2.9c1.3 0 2.5.3 3.8.6 0 0 .2 0 .5.1.3 0 .5 0 .6.1 1.4.2 2.6.6 3.8 1.1 2.1.9 3.6 1.9 4.6 2.7 1.1 1 1.9 1.7 2.3 2.2s.8 1.1 1.2 1.8c.3.5.5 1.2.6 2.1v.6s0 .4 0 .6c0 .4-.2.8-.3 1 0 .1-.1.2-.1.3 0 .9-.6 2.1-1.7 3.8-1.1 1.6-2.1 2.9-3 3.7-.1.1-.2.4-.2.8 0 .6.1 1.1.4 1.4 0 .1.3.6.8 1.4s.9 1.7 1.4 2.4l2.1 3.1c2 2.9 3.6 5.6 4.9 8 .5.9.8 1.4.8 1.4 0 .2-.3.3-.9.3h-.4c-.7-.1-1.6-.2-2.6-.2s-1.1 0-1.5.1h-.2s-.2 0-.4 0-.3 0-.4 0-.2 0-.3 0-.4 0-.9 0-.9 0-1.1 0c-.1 0-.4 0-.7 0s-.4 0-.8 0-.6 0-.8 0h-.4c-.3 0-.6 0-.8-.1-.2 0-.3-.1-.4-.2 0 0-.1-.2-.2-.5 0-.3-.2-.5-.3-.6-.3-.5-.8-1.6-1.5-3.2s-1.4-2.9-2-4.1-1.1-2.1-1.5-2.8v7.5.9.7s0 .3-.1.6v.5s0 .4 0 .6v.4s0 .1-.1.2h-1.6c-.1 0-.3 0-.6 0s-.5 0-.7 0c-.3 0-.5 0-.6 0h-.3c-.1 0-.3 0-.6 0-.2 0-.4 0-.5 0s-.2 0-.3 0-.3 0-.6 0-.6 0-.7 0-.4 0-.9 0-1 0-1.2 0c-.3 0-.7 0-1.2.2-.5 0-.7.1-.8.1-.3 0-.4 0-.5-.3 0-.2-.1-.5-.1-.8s0-.7 0-1.3c0-.7 0-1.3 0-1.7v-2.5s0-.3 0-.8 0-.9 0-1.2c0-.6 0-1 0-1.3v-3.6c0-.4 0-1.1 0-2s0-1.1 0-1.8 0-1.1 0-1.2v-.4c0-.1 0-.3 0-.6s0-.4 0-.7 0-.6 0-.8c0-.4 0-.7 0-1.1 0-.3 0-.5 0-.6 0-.3 0-.5 0-.7 0 0 0-.2 0-.4s0-.3 0-.5 0-.4 0-.5v-1.8c0-.9-.1-1.7-.1-2.2s0-1.5.1-2.6v-2.2c0-.1 0-.3 0-.5s0-.3 0-.5 0-.4 0-.4c0-.3 0-.7 0-1.1s0-.7 0-.8c0-.2 0-.4 0-.5v-.2c0-.1 0-.4 0-.8s0-.7 0-1c0-.4 0-.7.2-.9h3zm7.3 10.2c-.5-.3-1.1-.4-1.8-.4s-.4 0-.5.1c-.1 0-.2.3-.2.8s0 .5.1 1.3c0 .5.1 1 .1 1.5 0 1.6.1 2.4.2 2.4h.1s0 0 .2 0c.1 0 .6-.1 1.3-.4 1.3-.4 2-1.3 2-2.6s0-.2 0-.4 0-.2 0-.3c-.1-1-.6-1.7-1.5-2.1z"/><path d="m272.8 172.1s0-.1-.1-.2c0 0 0-.2-.1-.2-4-8-7-13.8-9.1-17.4v-.2c-.1 0-.2-.7-.2-.7 0-.4.5-.6 1.4-.6.4-.2.8-.3 1.4-.3s.5 0 .9 0h.8.5.3.1.1 1.8 1.4 1.6 1.5.4c.9 0 1.4 0 1.5.1.2.2.4.3.5.5s.2.3.3.5c0 .1 0 .2.1.3v.2h.1l.6 1.1.3.4 1 1.7.5 1.2 1.9 3.8c0-.1 0-.2.1-.3 0 0 0-.2.1-.2 0 0 0-.1.1-.2 0 0 0 0 0-.1.4-.7.7-1.2 1-1.5 0-.1.3-.5.7-1.1.8-1.6 1.3-2.4 1.4-2.5 0-.2.1-.4.2-.5 0-.2.1-.2.1-.3 0 0 0-.2.2-.5 0-.2.1-.4.2-.6 0-.2.2-.4.3-.6s.3-.4.5-.6h3.4.6.8 1.1l.9.2.6-.2h4.2.7s.3 0 .5 0h2.7v.3.3c0 .2 0 .5-.1.7 0 .2-.1.4-.2.6 0 .2-.2.4-.4.7s-.3.5-.4.6-.3.4-.5.7-.4.6-.5.7c-.3.3-1.1 1.3-2.2 2.8l-2.4 3.6s-.1.1-.2.3-.2.4-.4.6c-.1.2-.2.4-.3.5-1.2 2-2 3.3-2.5 3.8-.4.5-.6.8-.7 1-.2.6-.5 1.2-.8 1.9s-.6 1.3-.8 1.8-.3 1.2-.4 2.1c-.2 1.6-.3 2.9-.3 3.9s0 1.7 0 2.3v1.9 2.2.6c0 .3 0 .5.1.8v.7s0 .4 0 .7v.8s0 .2 0 .4v.3c0 .2 0 .4-.2.5-.1 0-.3.1-.6.1h-1.1c-.3 0-.6.1-.9.1s-.5 0-1 0-.9 0-1.3 0h-2.9c-.4 0-.6.1-.7.1s-.3 0-.4 0c-.2 0-.2 0-.3 0h-5c-.5 0-.8 0-.9-.3-.1-.2-.2-.5-.2-1v-.3c0-.1 0-.4 0-.9s0-1 0-1.4c0-1 0-2.1 0-3.3v-.6-1.8c0-1.3 0-2.8-.2-4.5 0-.3-.3-1.1-.7-2.3-.5-1.2-.7-1.9-.7-2l-.5-1.3z"/><path d="m321.3 168.3s.3-.1.6-.1h3.2 1.5.9c.2 0 .4 0 .8.1h1 .5 1.5 1.7.7.6 1.4s.8 0 1.1 0h.7.3.2c.3.2.4.5.4 1v.3c0 .9 0 1.7.1 2.3 0 .8.1 1.3.1 1.5s0 .3 0 .4c0 .4 0 .8.1 1.2 0 .3.1.6.1.7 0 .9-.3 1.5-1 1.9h-2.5c-.2 0-.5 0-1 0s-.5 0-.9 0c-.3 0-.5 0-.6 0h-.2c-1 0-1.6-.1-1.6-.1-.2 0-.5 0-.8 0s-.6 0-1 0-.8 0-1.1 0c-.5 0-1 0-1.6 0s-.9 0-1.1 0-.5 0-.9.1c-.7.1-1.3.2-1.7.2s-.7 0-1-.2c-.3-.1-.5-.4-.6-.7 0-.4-.1-1-.2-2 0-1.1-.1-1.8-.2-2 0-.2 0-.8 0-2s0-.6 0-.7 0-.2 0-.3v-.3c0-.6.1-.9.4-1.1z"/><path d="m357.4 183.4c-.2 0-.3-.2-.3-.5s0-.4.1-.8c0-.4.1-.7.1-.9s0-.4 0-.5c-.1-.4-.2-.8-.2-1.4 0-.8.2-1.5.6-2.1.9-1.4 1.5-2.1 1.7-2.2 0 0 0 0 .2-.1l.4-.4.4-.4c.7-.7 1.2-1.3 1.5-1.5 1.7-1.6 3.1-3 4.1-4.3.9-1.3 1.5-2.2 1.7-2.8.1-.2.2-.4.2-.6s0-.1 0-.3 0-.3 0-.3c-.2-1.4-.4-2.2-.5-2.4-.1-.1-.5-.8-1.2-2.2-.6-1.3-1.1-2.2-1.5-2.7l-.6-.9-1.3-1.9-.6-.9s0-.2-.2-.5c-.1-.3-.2-.5-.2-.6s0-.2.1-.2h.8 2.1 1.1.4.4.4.6s.6 0 .7 0h4.1 1c.8 0 1.3.2 1.4.6.4.7.7 1.3 1.1 1.8l.9 1.2c0 .1.2.3.3.5s.2.3.2.4c.6.5.9.9 1 1.3s.4.7.9 1.1c.5.5.8.9.9 1.2l.8.9c.2.2.4.8.8 1.8.3 1 .5 1.5.6 1.7.2.8.4 1.6.5 2.4v.8c0 1.6-.3 2.7-.9 3.4 0 0-.1.2-.2.4 0 .2-.2.4-.2.5-.5 1-1.3 1.9-2.2 2.7 0 0-.1.2-.2.4 0 .2-.4.4-.8.7-.2.1-.6.3-1.1.6l-2.7 1.7c-.4.3-.7.5-.7.6 0 0-.4.4-1.1 1s-1 1.1-1 1.3v.7.9h.2c.6.1 3.4.2 8.1.2s2.2 0 2.4.2.4.7.4 1.4v.5c0 .9 0 1.7.2 2.3v1.5.3 1.3.9c0 .9-.3 1.5-1 1.8l-.5.3h-2c-.3 0-.9 0-1.9-.1-.9 0-1.8 0-2.5-.1-.7 0-1.1 0-1.2 0-.7-.2-1.8-.3-3.1-.3s-.7 0-.9 0-.4.1-.7.1-.5 0-.7-.1c0 0-.1 0-.3 0s-.3 0-.3 0-.2 0-.4 0-.3 0-.4 0h-2.1c-1.8 0-3 0-3.6.2-.4 0-.7.1-.9.1-.7 0-1.3-.1-1.8-.4-.3-.2-.5-.4-.6-.6 0-.3-.1-.9-.2-1.8 0-1-.1-1.7-.2-2 0-.2 0-.8 0-2s0-.7 0-1.2 0-.8 0-.9z"/><path d="m393.4 150.8s0 0 .3 0 .3 0 .4 0c.9 0 1.6 0 2.2.2.2.1.5.2.9.2.9 0 1.8.1 2.5.3 1.5.3 2.6.8 3.6 1.5 1.3.8 2.2 1.6 2.6 2.2.7.9 1.2 1.7 1.5 2.4.4.9.6 2.3.6 4.1 0 1.2 0 2-.1 2.4 0 .4-.3.9-.6 1.5-.2.4-.6 1-1.3 1.9-1.3 1.3-1.9 2-1.9 2.3s.1.1.1.2h.3c.7.2 1.3.5 1.9 1 .8.6 1.4 1.2 1.9 1.9s.9 1.7 1.3 3.1c.2.9.3 2.3.3 3.9s0 1.1-.1 1.4c-.3.9-.8 2.2-1.6 3.8-.4.8-1 1.6-1.8 2.4l-1 1c-.4.4-1.1 1.1-2.2 1.9-1 .8-1.8 1.3-2.2 1.4-.9.4-1.7.9-2.4 1.3l-.7.4c-.1 0-.4.1-.8.3-.7.3-2 .7-3.9 1.1-1.8.4-3.4.6-4.8.6-.5 0-1 0-1.6 0s-.8 0-.9-.2-.2-.4-.2-.9v-.3c0-.2 0-.4 0-.6s0-.4 0-.6 0-.4 0-.5 0-.3 0-.5 0-.4-.1-.7c0-.3 0-.5-.1-.7-.2-1.9-.4-3.2-.7-3.9-.1-.5-.3-1.6-.5-3.5 0 0 0-.2 0-.3s0-.2 0-.2c0-.2 0-.4.2-.5.2-.2.6-.3 1.1-.3.3 0 .9-.1 1.7-.3.4-.1.8-.2 1.2-.2 0 0 .2 0 .4-.2.2 0 .4-.1.4-.2.3-.1.5-.2.6-.2s.5-.2 1.1-.7c.9-.6 1.5-1 1.8-1.3.7-.7 1-1.3 1.1-1.7v-.4c0-.3-.1-.5-.3-.6-.3-.2-1-.3-2.1-.3s-.8 0-1 0c-.1 0-.3 0-.5 0s-.3 0-.4 0c-.3-.1-.5-.3-.5-.6s0 0 0-.2c0 0 0-.1 0-.2v-.3c0-1.3-.1-2.4-.4-3.3l-.7-2.1c-.1-.3-.2-.6-.2-.7 0-.5.3-.8.9-.9.8-.1 1.5-.3 2.1-.6l1.1-.3c.7 0 1.5-.3 2.2-.7 1.1-.6 1.8-1.3 2.1-2.1v-.5c.1 0 0 0 0-.2 0 0 0-.1 0-.2-.4-.6-.7-.9-1.1-1 0 0-.1 0-.3-.1-.2 0-.3-.1-.4-.2-.3-.1-1.1-.2-2.4-.2s-3 .1-4.1.4c-.1.1-.4.2-.9.3-.2.1-.5.2-1 .3 0 0-.2 0-.5.1-.2 0-.4.1-.5.1-.4.1-.8.2-1.1.2s-.7-.4-.9-1.2c-.1-.4-.3-.9-.5-1.4 0-.1-.1-.3-.2-.6s-.2-.5-.2-.6c0-.2 0-.5-.1-1 0-.5-.1-.9-.2-1.3s0-.6 0-.7c0-.4 0-.9-.2-1.4-.1-.8-.2-1.3-.2-1.6s0-.4.3-.8c.4-.6.7-1 1.1-1s.6 0 1-.1c.6-.1 1-.2 1.2-.2h.9c.1 0 .4-.1.7-.1s.5 0 .6 0c.2 0 .3.1.4.1h.5c.4-.2 1-.3 1.9-.3l3.2-.2z"/><path d="m459.2 151.5c.1 0 .7-.1 1.6-.1s1 0 1.2.1h.6c.1 0 .3 0 .4-.1s.2 0 .3 0 0 0 .2.2c.3.7.4 1.9.4 3.6s0 .4 0 .8v.8 2.1.7 4.2 1.2s0 1.5.2 3.1c0 .1 0 .3.1.7 0 .3.1.6.1.7s0 .3 0 .6v.6c.1 2.3.2 3.6.2 3.8 0 .5 0 1.2-.1 2.2 0 1-.1 2-.1 3s0 1.3.1 1.7c0 .3.1.6.1.8s0 .3 0 .5v.9 1.1 1.3.4s0 .2 0 .4v.4 1.5.6s0 .3 0 .5v.4 2.2c-.1.1-.2.2-.4.2s-.4 0-.9 0-1.1 0-1.8-.1c-1.1 0-1.7-.1-1.9-.1-.3 0-.7 0-1.1.1h-4.4c-.1 0-.3 0-.5 0s-.3 0-.4 0c-.3 0-.5-.3-.5-1v-6.4c0-.1 0-.3 0-.7s0-.6 0-.8 0-.5-.1-.9c0-.4-.1-.6-.1-.8s0-.6.2-1.4v-3.7c0-.2 0-.5 0-.9s0-.7 0-.8 0-.5-.1-.9c0-.5-.3-.8-.6-.8s-.6.3-1 .9-.7 1-.9 1.3l-.7 1.1c-.3.4-.5.7-.6.8-.2.1-.3.2-.3.4 0 .1-.2.3-.5.6 0 .1-.3.4-.7.9-.6.9-1.2 1.4-1.7 1.4-.5-.1-1.2-.8-2-2.1l-.9-1.1c-.2-.2-.5-.4-.8-.7l-.8-.8c-.3-.3-.5-.5-.6-.5s-.2.3-.2.9 0 .2 0 .5v.6c0 .6.1 1.2.2 1.8v.6 2.5c-.1 2.3-.2 4.9-.2 8v1c0 .3 0 .6-.1.8-.2.1-.7.1-1.5 0-.6 0-1.2-.1-1.8-.1s-1.2 0-2 0-1.4 0-1.5 0c-.3 0-.8 0-1.3 0-.6 0-1 0-1.2 0-.4 0-.7 0-.8-.2 0 0-.2 0-.3 0s-.2 0-.3 0-.2-.2-.3-.5c0-.2-.1-.6-.2-1 0-.4 0-.9-.1-1.2 0-.4 0-.9 0-1.6s0-1.2 0-1.5c0-.1 0-.4 0-.7s0-.5 0-.6v-2.2c0-1 .1-2.2.1-3.6s0-2.8-.2-4.8c0-.1 0-.4 0-.8s0-.6 0-.8l-.2-1.2c0-.2 0-.9 0-2.1s0-1.6 0-1.6v-1.5c0-.3 0-.7 0-1.3s0-1.1 0-1.3v-.5c0-1.8-.1-3.8-.4-6.1 0-.2 0-.5 0-.8s0-.5 0-.7 0-.4 0-.7 0-.6 0-.8c0-.8.2-1.3.6-1.5h.8s.8 0 1 0h.6.7c.4 0 .8.2 1.3.5.3 0 .6.1.9.2.5.1 1 .5 1.5 1 .1 0 .6.4 1.3 1 .6.5 1 .8 1.1 1 .2.2.4.3.5.4.7.4 1.6 1.2 2.8 2.5.5.5.9.8 1.1.9.2.3.5.7.9 1 .4.6.9 1 1.3 1.2l.8.8c.3.2.4.3.5.3.2 0 .4-.2.6-.5l2-2.4s.3-.4.8-1c.4-.5.7-.9.8-1 .3-.3.5-.6.7-.9.1-.2.4-.6.9-1.2s.7-1 .8-1.1l.9-1c.5-.6.7-1 .8-1.2.5-.9 1.4-1.4 2.6-1.4h2.6z"/><path d="m479.4 153.1c.5-.1 1.3-.2 2.4-.2s1.5 0 1.7.2c.3.1.5.2.6.2s.2 0 .3.1c.2 0 .3.2.3.3s.1.3.2.5l.7 1.4c.4.8.7 1.3.8 1.5.1.4.3.8.6 1.2.2.3.3.5.4.7.1.4.6 1.3 1.5 2.9.1.2.3.4.4.8 0 0 .2.2.3.4s.2.3.3.4l.7 1.2c.2.4.5 1.1 1 1.9 1.5 2.5 3.5 6.2 5.8 11 2.4 4.8 3.7 7.6 4.1 8.3.2.3.3.8.5 1.4s.4 1.2.9 1.8c.6 1.5 1 2.3 1 2.5s0 .2-.2.2h-.2c-.1 0-.5 0-1.1-.1-.6 0-.9-.1-1.1-.1s-.4 0-.7 0-.6 0-.7 0c-.4 0-.8.1-1.1.1s-.9 0-1.6-.1h-1.8s-.2 0-.5 0-.4 0-.6 0-.3 0-.6 0-.6 0-.7 0-.4 0-.7 0-.6 0-.7 0-.3 0-.6 0-.4 0-.5 0c-.3 0-.6 0-1 .1-.4 0-.6 0-.7 0-.2 0-.3 0-.5-.2-.3-.2-.6-1-.9-2.4-.3-1.5-.6-2.5-1-3-.3-.5-.4-.8-.5-.8h-.9c-.5 0-.9.1-1.4.1s-.8 0-1.8-.1c-.4 0-.9 0-1.5 0s-1 0-1.4 0c-.3 0-.7 0-1.2 0-.6 0-.9 0-1.1 0-.3 0-.5 0-.6 0v.2c0 .1-.1.2-.2.4 0 .2 0 .3-.1.4-.7 1.9-1.4 3.4-2.1 4.7-.3.6-.6.9-1 .9s-.2 0-.4 0-.4 0-.6 0-.4-.1-.7-.1-.3 0-.6 0-.5 0-.8 0h-1.4c-.1-.1-.7-.2-1.7-.2s-2 0-2.5.2c-.5 0-.7.1-.8.1 0 0-.3 0-.6-.1 0 0-.2 0-.3 0s-.2 0-.3 0-.2 0-.2 0-.1 0-.3 0c-.1 0-.3 0-.4 0-.5 0-.8-.1-.8-.4s0 0 0-.2l.2-.5c.1-.3.3-.7.4-1.1s.2-.7.3-.8c.2-.6.4-1.2.6-1.5 0-.1 0-.3.2-.5 0-.2.2-.5.3-.8s.2-.5.3-.7l.8-2.1c0-.3.2-.6.5-1.1.2-.2.3-.4.3-.6s0 0 0-.1c0 0 0-.1.1-.2 0 0 0-.2.1-.2.5-1.2.8-1.8.8-1.9 0-.2.1-.6.4-1.2.3-.8.5-1.4.6-1.8.2-.6.3-1 .4-1.3.3-.5.4-.8.4-.9 0-.2 0-.4.2-.6 0 0 0-.2.2-.5s.2-.4.2-.6l.4-1.2.4-1.5c0-.2.2-.5.3-.9.2-.4.2-.6.3-.7.2-.6.5-1.6.9-3 0-.1 0-.3.2-.5 0-.2.1-.4.2-.5s0-.3.1-.4c.2-.6.4-1.2.7-1.9s.4-1.1.4-1.1c.1-.2.2-.6.3-1 0 0 0-.2.2-.5 0-.2.1-.4.2-.5l.5-1.5c.4-1.6.9-2.7 1.3-3.3.3-.5.6-.7 1.1-.7h1.3.4s.3 0 .6 0h.5 1.5zm1.7 16c-.2-.5-.4-.8-.5-.8h-.1s0 .1-.2.4c0 .3-.2.7-.3 1.2-.1.6-.3 1.1-.4 1.6-.5 1.8-.8 2.7-.9 2.8l-.2.7c0 .1 0 .3-.1.5s0 .3 0 .4v.2s0 .1.1.3c.1.1 1.5.2 4.2.4h1.1c.5 0 .8 0 .8-.2v-.2c0-.2-.3-.9-.7-1.9-.5-1-.7-1.6-.8-1.9 0-.1-.2-.3-.3-.5-.1-.3-.2-.5-.4-.8-.1-.3-.2-.4-.2-.5l-.6-.9s-.1-.2-.2-.4-.2-.3-.3-.4z"/><path d="m502.5 152.2h2.9c1.3 0 2.5.3 3.8.6 0 0 .2 0 .5.1.3 0 .5 0 .6.1 1.4.2 2.6.6 3.8 1.1 2.1.9 3.6 1.9 4.6 2.7 1.1 1 1.9 1.7 2.3 2.2s.8 1.1 1.2 1.8c.3.5.5 1.2.6 2.1v.6s0 .4 0 .6c0 .4-.2.8-.3 1 0 .1-.1.2-.1.3 0 .9-.6 2.1-1.7 3.8-1.1 1.6-2.1 2.9-3 3.7-.1.1-.2.4-.2.8 0 .6.1 1.1.4 1.4 0 .1.3.6.8 1.4s.9 1.7 1.4 2.4l2.1 3.1c2 2.9 3.6 5.6 4.9 8 .5.9.8 1.4.8 1.4 0 .2-.3.3-.9.3h-.4c-.7-.1-1.6-.2-2.6-.2s-1.1 0-1.5.1h-.2s-.2 0-.4 0-.3 0-.4 0-.2 0-.3 0-.4 0-.9 0-.9 0-1.1 0c-.1 0-.4 0-.7 0s-.4 0-.8 0-.6 0-.8 0h-.4c-.3 0-.6 0-.8-.1-.2 0-.3-.1-.4-.2 0 0-.1-.2-.2-.5 0-.3-.2-.5-.3-.6-.3-.5-.8-1.6-1.5-3.2s-1.4-2.9-2-4.1-1.1-2.1-1.5-2.8v7.5.9.7s0 .3-.1.6v.5s0 .4 0 .6v.4s0 .1-.1.2h-1.6c-.1 0-.3 0-.6 0s-.5 0-.7 0c-.3 0-.5 0-.6 0h-.3c-.1 0-.3 0-.6 0-.2 0-.4 0-.5 0s-.2 0-.3 0-.3 0-.6 0-.6 0-.7 0-.4 0-.9 0-1 0-1.2 0c-.3 0-.7 0-1.2.2-.5 0-.7.1-.8.1-.3 0-.4 0-.5-.3 0-.2-.1-.5-.1-.8s0-.7 0-1.3c0-.7 0-1.3 0-1.7v-2.5s0-.3 0-.8 0-.9 0-1.2c0-.6 0-1 0-1.3v-3.6c0-.4 0-1.1 0-2s0-1.1 0-1.8 0-1.1 0-1.2v-.4c0-.1 0-.3 0-.6s0-.4 0-.7 0-.6 0-.8c0-.4 0-.7 0-1.1 0-.3 0-.5 0-.6 0-.3 0-.5 0-.7 0 0 0-.2 0-.4s0-.3 0-.5 0-.4 0-.5v-1.8c0-.9-.1-1.7-.1-2.2s0-1.5.1-2.6v-2.2c0-.1 0-.3 0-.5s0-.3 0-.5 0-.4 0-.4c0-.3 0-.7 0-1.1s0-.7 0-.8c0-.2 0-.4 0-.5v-.2c0-.1 0-.4 0-.8s0-.7 0-1c0-.4 0-.7.2-.9h3zm7.3 10.2c-.5-.3-1.1-.4-1.8-.4s-.4 0-.5.1c-.1 0-.2.3-.2.8s0 .5.1 1.3c0 .5.1 1 .1 1.5 0 1.6.1 2.4.2 2.4h.1s0 0 .2 0c.1 0 .6-.1 1.3-.4 1.3-.4 2-1.3 2-2.6s0-.2 0-.4 0-.2 0-.3c-.1-1-.6-1.7-1.5-2.1z"/><path d="m569 152h.5 1.3s.9 0 2.2.1c3.3.1 5 .3 5.2.5 0 0 .1.2.1.5s0 .3 0 .8v1.4.8 1.4 1.7 2 14.3 1.7 5.3 5.1s0 1.5 0 2.3v1.5.5s0 .1.1.2c0 0 .1 0 .1.1 0 0-.3.1-.8.1-.8 0-1.4 0-1.8-.1h-.7-.8c-1.1.2-2.2.3-3.4.3s-2.1-.1-2.7-.3c-.3 0-.4-.2-.5-.3 0-.1-.1-.4-.1-.7s0-.5 0-1.1 0-1.2 0-1.8 0-1.4 0-2.2c0-.7 0-1.3 0-1.6 0-.6 0-1.2 0-1.9s0-1.3 0-2 0-.4-.3-.5c-.2-.2-.3-.3-.5-.3s-.2 0-.3 0h-1c-.2 0-.3 0-.5 0h-.2-1.7c-.4.2-.6 1.8-.6 4.7s0 1.9.1 3.3c0 1.5.1 2.6.1 3.3s0 1.1-.3 1.1h-.4c-.2-.2-.5-.2-.8-.2s-.3 0-.7 0c-.3 0-.6 0-.8 0-.4 0-.7 0-.9 0h-.8c-.1 0-.5.1-1.2.1s-1.4 0-3-.1h-.5c-.3 0-.6 0-1.1 0s-.8 0-.9 0c-.2 0-.4 0-.4 0v-.2-.2c0-.1 0-.2 0-.3v-3.5c0-.3 0-.8 0-1.5s0-1.2 0-1.4c0-.5 0-.9 0-1.1s0-.5 0-.9 0-.6 0-.8c0-.6 0-1.3 0-2.2s0-1.4 0-1.6 0-.2 0-.4 0-.3 0-.3v-4.6c0-.3 0-.9 0-1.9s0-1.8 0-2.4 0-1.6-.2-2.4c0-.1 0-.7-.1-1.6-.4 0-.8-.1-1.2-.1-7.3 0-11.6 1.6-12.7 4.9-.3.9-.5 1.9-.5 3s.2 2.5.6 3.6c.4 1 1 1.7 1.9 2 0 0 .2 0 .4.2.2 0 .4.1.5.2h.5.3c.4.2 2.7.3 6.9.3.1.1.2.2.2.3s0 .2 0 .5v.6 9.3.7.9c0 .7-.1 1-.4 1.1-.2 0-.9 0-2-.2-1.1 0-1.8-.1-2-.2-.3 0-.8-.1-1.8-.2-.9-.1-1.5-.2-1.9-.3-.3 0-.8-.2-1.6-.3-.7-.1-1.3-.3-1.7-.4-.4-.2-.8-.3-1.4-.5s-1.1-.4-1.5-.7c-.4-.2-.9-.5-1.3-.8-.3-.2-.7-.6-1.2-1.3s-.8-1.1-.9-1.3-.2-.3-.4-.4c-.1 0-.3-.2-.5-.5l-.3-.6c-.2-.4-.4-.7-.6-.9l-.7-1.1c-1.2-2.9-1.8-5.9-1.8-8.9v-.3s0-.3 0-.8 0-.9 0-1.3c.1-3 .5-5.6 1.1-7.5l.6-1.7c.1-.4.3-.8.5-1.3s.3-.8.4-1.1c.4-.8 1.2-1.9 2.6-3.2s2.4-2 3.2-2.3c.2 0 .5-.2.9-.4s.7-.3 1-.4c0 0 .3 0 .8-.2.5-.3 2.1-.6 4.6-1 2.6-.4 4.8-.6 6.7-.6s1.1 0 1.7.1l5.9.2h1.3s.2 0 .4 0h.9 1.1c1.2 0 1.9.1 2.1.4 0 .9.1 3.9.1 9v5.5.4s0 .3 0 .4v.2h5.5v-12.4c0-.3 0-.8 0-1.4s0-1 0-1.2c0-.5 0-.8.2-.9s.5-.2 1-.2h.4z"/><path d="m597.2 183.4c-.2 0-.3-.2-.3-.5s0-.4.1-.8c0-.4.1-.7.1-.9s0-.4 0-.5c-.1-.4-.2-.8-.2-1.4 0-.8.2-1.5.6-2.1.9-1.4 1.5-2.1 1.7-2.2 0 0 0 0 .2-.1l.4-.4c.2-.2.3-.3.4-.4.7-.7 1.2-1.3 1.5-1.5 1.7-1.6 3.1-3 4.1-4.3.9-1.3 1.5-2.2 1.7-2.8.1-.2.2-.4.2-.6s0-.1 0-.3 0-.3 0-.3c-.2-1.4-.4-2.2-.5-2.4-.1-.1-.5-.8-1.2-2.2-.6-1.3-1.1-2.2-1.5-2.7l-.6-.9-1.3-1.9-.6-.9s0-.2-.2-.5c-.1-.3-.2-.5-.2-.6s0-.2.1-.2h.8 2.1 1.1.4.4.4.6s.6 0 .7 0h4.1 1c.8 0 1.3.2 1.4.6.4.7.7 1.3 1.1 1.8l.9 1.2c0 .1.2.3.3.5s.2.3.2.4c.6.5.9.9 1 1.3s.4.7.9 1.1c.5.5.8.9.9 1.2l.8.9c.2.2.4.8.8 1.8.3 1 .5 1.5.6 1.7.2.8.4 1.6.5 2.4v.8c0 1.6-.3 2.7-.9 3.4 0 0-.1.2-.2.4 0 .2-.2.4-.2.5-.5 1-1.3 1.9-2.2 2.7 0 0-.1.2-.2.4 0 .2-.4.4-.8.7-.2.1-.6.3-1.1.6l-2.7 1.7c-.4.3-.7.5-.7.6 0 0-.4.4-1.1 1s-1 1.1-1 1.3v.7.9h.2c.6.1 3.4.2 8.1.2s2.2 0 2.4.2.4.7.4 1.4v.5c0 .9 0 1.7.2 2.3v1.5.3 1.3.9c0 .9-.3 1.5-1 1.8l-.5.3h-2c-.3 0-.9 0-1.9-.1-.9 0-1.8 0-2.5-.1-.7 0-1.1 0-1.2 0-.7-.2-1.8-.3-3.1-.3s-.7 0-.9 0-.4.1-.7.1-.5 0-.7-.1c0 0-.1 0-.3 0s-.3 0-.3 0-.2 0-.4 0-.3 0-.4 0h-2.1c-1.8 0-3 0-3.6.2-.4 0-.7.1-.9.1-.7 0-1.3-.1-1.8-.4-.3-.2-.5-.4-.6-.6 0-.3-.1-.9-.2-1.8 0-1-.1-1.7-.2-2 0-.2 0-.8 0-2s0-.7 0-1.2 0-.8 0-.9z"/><path d="m639.3 151.8c.7 0 1.3 0 1.8.1.2 0 .5.1 1.1.3.2 0 .7.2 1.3.5l.9.4c.1 0 .5.2 1.1.5s.9.6 1.1.7c.2.2.4.3.5.3l.7.5c.3.3.6.4.8.4s.9.5 2.1 1.5c.8.8 1.6 1.7 2.1 2.6 0 0 .1.2.2.4s.2.4.3.5c.3.4.4.6.5.7 0 0 0 0 .1.2 0 0 0 .1.1.2 0 0 0 .1.1.2.6 1 1 1.9 1.2 2.7l.3 1.2c0 .1 0 .3.2.6 0 .3.1.5.2.6.2.6.3 1.8.3 3.6s0 1.2 0 1.5c0 .7-.2 1.5-.4 2.5 0 0-.2.5-.4 1.2-.1.9-.5 1.9-1.1 3.1-.6 1.3-1.1 2.6-1.5 3.7-.2.8-.4 1.2-.5 1.3 0 0-.2.2-.4.6-.3.6-.7 1.1-1.1 1.6-.7.7-1.3 1.6-1.9 2.4-.8 1.1-1.8 1.9-2.9 2.3-1.2.5-2.1.8-2.7.8s-.7 0-1.3.2c-.8.3-1.9.5-3.2.5h-.7c-1.2 0-1.9-.2-2.2-.5-.1-.1-.2-.2-.4-.2s-1.1-.4-2.6-1.2-2.6-1.4-3.1-1.7-.9-.5-1.1-.7-.5-.7-1-1.4c-.4-.6-.7-.9-.8-1.1-.5-.6-1.2-1.6-1.8-3 0 0 0-.3-.2-.7-.1-.4-.2-.7-.3-.9l-.6-1.7c-.5-1.8-.8-3.5-.8-5.2v-.3c0-.2 0-1.2 0-2.9 0-.4 0-.8 0-1.2s0-.7 0-.9v-.5c0-.1 0-.2.1-.4 0-.2 0-.3 0-.5.1-1 .6-2.3 1.3-3.7l1.1-2.6c0-.1.2-.4.5-.7 0-.1.2-.3.4-.5s.3-.4.4-.5c.9-1.3 1.8-2.2 2.6-2.9.7-.5 1.1-.9 1.3-1.1.3-.2 1.2-.8 2.6-1.8.6-.4 1.2-.7 1.8-.8.6-.2 1.1-.3 1.5-.3h1.9.5zm.8 16.6c-.3-.1-.6-.2-.9-.2s-.5 0-.7 0c-.4 0-.9.3-1.4.6-.5.4-.8.8-1 1.2s-.3.9-.3 1.4.2 1.2.6 1.6c.2.3.6.5 1.1.7.6.3 1.1.5 1.4.5s.5 0 .7-.2c0 0 .2 0 .6-.3.4-.2.7-.4.9-.6s.3-.5.3-.8c0-.1 0-.4 0-.7v-1.3c0-.8-.5-1.5-1.4-2.1z"/><path d="m656.7 183.4c-.2 0-.3-.2-.3-.5s0-.4.1-.8c0-.4.1-.7.1-.9s0-.4 0-.5c-.1-.4-.2-.8-.2-1.4 0-.8.2-1.5.6-2.1.9-1.4 1.5-2.1 1.7-2.2 0 0 0 0 .2-.1l.4-.4c.2-.2.3-.3.4-.4.7-.7 1.2-1.3 1.5-1.5 1.7-1.6 3.1-3 4.1-4.3.9-1.3 1.5-2.2 1.7-2.8.1-.2.2-.4.2-.6s0-.1 0-.3 0-.3 0-.3c-.2-1.4-.4-2.2-.5-2.4-.1-.1-.5-.8-1.2-2.2-.6-1.3-1.1-2.2-1.5-2.7l-.6-.9-1.3-1.9-.6-.9s0-.2-.2-.5c-.1-.3-.2-.5-.2-.6s0-.2.1-.2h.8 2.1 1.1.4.4.4.6s.6 0 .7 0h4.1 1c.8 0 1.3.2 1.4.6.4.7.7 1.3 1.1 1.8l.9 1.2c0 .1.2.3.3.5s.2.3.2.4c.6.5.9.9 1 1.3s.4.7.9 1.1c.5.5.8.9.9 1.2l.8.9c.2.2.4.8.8 1.8.3 1 .5 1.5.6 1.7.2.8.4 1.6.5 2.4v.8c0 1.6-.3 2.7-.9 3.4 0 0-.1.2-.2.4 0 .2-.2.4-.2.5-.5 1-1.3 1.9-2.2 2.7 0 0-.1.2-.2.4 0 .2-.4.4-.8.7-.2.1-.6.3-1.1.6l-2.7 1.7c-.4.3-.7.5-.7.6 0 0-.4.4-1.1 1s-1 1.1-1 1.3v.7.9h.2c.6.1 3.4.2 8.1.2s2.2 0 2.4.2.4.7.4 1.4v.5c0 .9 0 1.7.2 2.3v1.5.3 1.3.9c0 .9-.3 1.5-1 1.8l-.5.3h-2c-.3 0-.9 0-1.9-.1-.9 0-1.8 0-2.5-.1-.7 0-1.1 0-1.2 0-.7-.2-1.8-.3-3.1-.3s-.7 0-.9 0-.4.1-.7.1-.5 0-.7-.1c0 0-.1 0-.3 0s-.3 0-.3 0-.2 0-.4 0-.3 0-.4 0h-2.1c-1.8 0-3 0-3.6.2-.4 0-.7.1-.9.1-.7 0-1.3-.1-1.8-.4-.3-.2-.5-.4-.6-.6 0-.3-.1-.9-.2-1.8 0-1-.1-1.7-.2-2 0-.2 0-.8 0-2s0-.7 0-1.2 0-.8 0-.9z"/><path d="m696.6 152c.5-.1.9-.2 1.1-.2s.3 0 .5.2h.4 1.1.7s.5 0 1 0h.9.5c.4 0 .9 0 1.4-.2.5 0 .8-.1.9-.1.3 0 .5 0 .7.3.2.2.3.6.4 1.3 0 .7.1 1.7.2 3.1 0 1.3 0 2.4.2 3.1v1.4s0 .8-.2 1.1l-.4.4c-1.6.6-3.4.9-5.3.9h-.8c-1 0-1.5.1-1.6.3s-.2.7-.4 1.3c-.2.7-.3 1.1-.3 1.2-.2.4-.3 1.1-.3 2v.3c0 .1.7.4 2 .7.4.1.6.2.7.3.3.1.8.2 1.4.4s1 .3 1.3.4c.3 0 .6.2 1 .4s.7.4 1 .6c.3.3.6.6.8.9.6.9.9 1.7.9 2.2 0 .3.2.7.4 1 .4 1.4.7 2.5.7 3.3 0 1.8-.2 3.3-.7 4.3-.1.3-.3.6-.5 1.1-.6 1.7-1.6 3.1-3 4.3-.9.8-2.1 1.6-3.7 2.5-1.5.7-3.1 1.2-4.7 1.7-.5.1-1.4.2-2.6.3-.8 0-1.4.2-1.6.3-.3 0-.7.1-1.1.1s-1.4-.1-2.7-.3c-1.5-.2-2.3-.4-2.4-.6 0-.1-.2-.3-.3-.4 0 0 0 0-.1-.2 0 0-.1-.1-.2-.2 0 0 0-.2-.1-.2-.1-.3-.2-.9-.2-1.8v-2.3c0-1.8 0-3.8-.2-6.1v-.7c-.1 0 .3-.3.3-.3.2-.2.4-.3.5-.3s.2 0 .3.3l.2.2c0-.1.2-.2.3-.2s.3 0 .5.2c.1.1.3.2.5.2h.1.2c.1 0 .8-.2 1.9-.5.1 0 .4-.1.8-.2.5-.1 1.1-.4 1.7-.9.5-.6.8-1.2.9-1.7 0-.4 0-.7-.2-.8-.5-.4-1.5-.8-2.8-1.2 0 0-.2 0-.3-.1-.1 0-.2 0-.3-.1-.1 0-.2 0-.2-.1-.3-.2-.6-.3-.8-.4l-.9-.3s-.2 0-.3 0-.3 0-.4-.1c-.1 0-.2 0-.3 0-.4 0-.6-.1-.7-.2 0 0-.2 0-.5-.1-.2 0-.4-.1-.6-.2-.2 0-.3-.2-.3-.3.2-.5.4-1.3.7-2.6s.4-2.1.4-2.5 0-.3 0-.4c0-.2 0-.3 0-.4s0-.2 0-.2c.1-.3.2-.5.2-.6 0-.3 0-.6.2-.9.2-.5.3-1.4.5-2.7 0-.5.1-1.1.3-1.8 0-.1 0-.4.2-.8 0-.4.1-.7.2-.9 0-.2 0-.5.2-.8 0-.3.1-.5.1-.5s0-.7.2-1.8c.2-2 .4-3 .5-3.2.3-.5.8-.7 1.5-.7s1 0 1.6 0h1.2.8c.3 0 .6-.1.7-.1s.2 0 .3.1h.3s.2 0 .3 0h.2s.3 0 .7 0h1.2 1.5z"/></g></svg>